<?xml version="1.0" standalone="no"?>
<!DOCTYPE svg PUBLIC "-//W3C//DTD SVG 20010904//EN"
 "http://www.w3.org/TR/2001/REC-SVG-20010904/DTD/svg10.dtd">
<svg version="1.0" xmlns="http://www.w3.org/2000/svg"
 width="1000.000000pt" height="1000.000000pt" viewBox="0 0 1000.000000 1000.000000"
 preserveAspectRatio="xMidYMid meet">
<metadata>
Created by potrace 1.11, written by Peter Selinger 2001-2013
</metadata>
<g transform="translate(0.000000,1000.000000) scale(0.100000,-0.100000)"
fill="#000000" stroke="none">
<path d="M7238 8975 c-2 -2 -86 -6 -188 -9 -102 -4 -203 -9 -225 -11 -22 -2
-72 -6 -111 -9 -39 -4 -80 -8 -90 -10 -11 -2 -46 -7 -79 -11 -32 -4 -68 -9
-79 -11 -11 -2 -37 -6 -58 -9 -60 -9 -188 -45 -222 -62 -46 -23 -76 -54 -76
-78 0 -31 35 -72 73 -86 28 -10 132 -124 241 -264 18 -23 19 -58 20 -1076 l1
-1052 -75 -77 c-148 -153 -187 -196 -344 -380 -69 -81 -241 -306 -303 -396
-149 -218 -250 -401 -373 -679 -91 -205 -173 -529 -173 -685 0 -421 369 -767
1088 -1017 55 -19 105 -36 110 -37 6 -2 42 -12 80 -24 74 -22 283 -77 325 -86
14 -2 55 -12 91 -20 228 -54 499 -85 584 -66 22 4 63 11 90 15 128 16 423 82
705 159 65 18 237 77 340 118 520 207 821 469 907 788 71 269 -65 755 -350
1250 -64 111 -242 388 -261 405 -6 6 -38 46 -71 90 -132 176 -309 381 -480
555 l-83 85 0 1055 0 1055 47 55 c25 30 48 57 51 60 3 3 39 44 79 93 40 48 76
87 81 87 4 0 16 8 27 18 27 23 36 64 19 88 -35 50 -209 103 -426 130 -19 2
-48 6 -65 8 -16 3 -66 8 -110 11 -44 4 -96 9 -115 11 -19 2 -152 7 -295 10
-143 2 -270 6 -282 8 -13 2 -24 2 -25 1z m1151 -342 c-8 -10 -21 -26 -29 -36
-8 -11 -47 -56 -85 -102 l-70 -82 0 -1075 0 -1076 65 -65 c107 -106 171 -176
271 -292 116 -136 249 -301 249 -310 0 -4 -15 -4 -32 -1 -18 3 -42 8 -53 10
-52 10 -304 33 -445 41 -465 27 -1421 27 -1810 0 -165 -11 -220 -15 -265 -20
-27 -3 -72 -8 -100 -11 -27 -3 -57 -7 -65 -9 -8 -2 -40 -7 -69 -10 -52 -7 -54
-6 -40 12 7 10 16 20 19 23 3 3 27 34 55 70 98 130 238 288 423 479 l82 86 0
1075 0 1075 -96 114 c-56 65 -89 111 -78 108 60 -17 293 -52 409 -61 33 -3
105 -9 160 -13 202 -16 939 -7 1056 12 13 2 51 6 84 9 123 12 353 51 364 62
12 12 12 2 0 -13z"/>
<path d="M2080 7556 c-46 -14 -70 -32 -100 -76 -33 -47 -39 -164 -10 -220 l19
-37 -51 -149 c-28 -82 -109 -320 -180 -529 -71 -209 -131 -387 -133 -395 -2
-8 -30 -92 -62 -187 l-58 -171 -38 -12 c-39 -11 -96 -76 -107 -122 -6 -25 3
-21 -315 -113 -126 -36 -240 -70 -251 -75 -17 -7 -27 -3 -45 17 -34 36 -95 62
-136 57 -54 -7 -88 -29 -122 -80 -59 -90 -39 -227 43 -289 45 -34 127 -40 169
-12 36 23 77 80 83 113 3 16 7 30 9 33 4 4 352 107 390 115 11 3 58 16 105 30
l85 25 18 -24 c44 -60 134 -83 196 -50 90 46 128 180 81 284 l-20 44 45 131
c63 186 304 897 377 1114 33 100 64 182 67 182 4 -1 466 -746 554 -895 7 -11
14 -22 17 -25 3 -3 12 -25 21 -50 l15 -45 -155 -461 -155 -461 -33 -12 c-64
-24 -115 -124 -106 -210 16 -166 189 -237 288 -119 l24 29 323 -136 c178 -75
337 -143 353 -150 17 -8 86 -37 155 -65 69 -29 148 -62 175 -75 28 -12 177
-76 332 -141 258 -109 283 -122 294 -149 47 -118 157 -161 246 -96 50 36 77
90 79 162 7 174 -162 273 -275 160 l-37 -37 -195 82 c-324 136 -792 335 -824
349 -16 8 -147 63 -290 123 -143 61 -271 115 -285 121 -14 7 -34 32 -46 56
l-21 45 84 247 c46 137 113 336 150 444 l66 196 41 11 c44 11 73 37 103 91 17
32 42 45 313 162 162 70 315 137 340 148 25 11 175 76 334 145 l288 125 38
-30 c91 -74 218 -27 254 93 53 179 -103 337 -242 245 -40 -26 -82 -95 -82
-133 0 -16 -64 -47 -367 -179 -203 -87 -397 -172 -432 -188 -36 -15 -148 -64
-249 -108 l-184 -80 -42 45 c-22 24 -54 48 -69 51 -35 9 -121 -2 -125 -15 -7
-19 -27 -10 -48 23 -21 31 -220 354 -258 419 -11 18 -69 111 -128 207 -92 148
-108 179 -103 203 20 89 1 181 -47 233 -34 36 -103 55 -148 41z"/>
<path d="M4028 2605 c-2 -2 -22 -6 -45 -9 -109 -13 -242 -74 -332 -153 -132
-116 -211 -302 -206 -488 6 -208 63 -347 192 -466 73 -67 154 -111 260 -141
104 -29 334 -32 432 -5 178 48 303 155 382 325 16 35 29 70 29 78 0 12 -216
124 -240 124 -4 0 -13 -19 -20 -42 -32 -108 -104 -197 -197 -243 -115 -57
-259 -33 -360 59 -22 19 -54 62 -70 93 -27 51 -36 77 -50 143 -1 8 -4 42 -5
75 -5 166 85 328 218 394 71 36 188 41 266 11 67 -25 134 -88 169 -158 13 -26
25 -49 27 -52 4 -6 212 -7 213 -1 4 20 3 424 -1 431 -3 4 -50 7 -105 7 l-100
-2 -3 -42 c-2 -24 -5 -43 -8 -43 -2 0 -21 11 -42 24 -69 46 -187 78 -298 82
-56 2 -103 1 -106 -1z"/>
<path d="M2697 2590 c-124 -32 -221 -137 -244 -266 -18 -95 -5 -163 47 -243
48 -74 124 -132 263 -200 144 -71 175 -92 207 -139 62 -93 0 -202 -114 -202
-94 0 -163 67 -180 175 -4 21 -11 42 -15 45 -12 7 -187 4 -198 -3 -5 -3 -9
-99 -8 -214 l0 -207 108 -1 107 -1 0 50 0 50 33 -31 c63 -60 111 -77 217 -77
114 0 162 12 227 61 93 68 135 159 137 293 2 191 -80 301 -304 407 -52 25
-123 58 -158 75 -92 44 -127 98 -102 158 26 64 110 86 185 50 52 -25 78 -58
94 -118 13 -46 8 -44 111 -44 33 0 72 1 88 1 l27 1 -1 183 c-1 100 -2 185 -3
189 0 4 -48 8 -106 7 l-105 0 0 -50 0 -50 -33 34 c-19 18 -51 41 -71 51 -43
20 -156 29 -209 16z"/>
<path d="M5020 2481 l0 -109 80 1 c48 1 80 -2 80 -8 0 -5 -18 -71 -41 -145
-22 -74 -41 -142 -43 -150 -2 -8 -28 -94 -56 -190 -29 -96 -62 -209 -73 -250
l-22 -75 -77 -3 c-52 -2 -78 -7 -79 -15 -1 -17 -1 -137 0 -172 l1 -30 269 0
c148 0 272 3 276 7 7 7 13 176 7 196 -3 8 -29 12 -84 12 -60 0 -79 3 -76 13 3
6 18 54 33 105 l28 92 162 0 161 0 27 -97 c15 -54 27 -101 27 -105 0 -5 -35
-8 -78 -8 l-78 0 2 -102 c1 -57 2 -105 3 -108 2 -8 594 -6 606 2 6 3 10 49 9
105 l-1 98 -76 3 c-43 2 -77 5 -77 7 0 5 -186 593 -230 728 l-29 87 42 1 c23
0 61 0 85 -1 l42 -2 0 110 0 110 -410 1 -410 0 0 -108z m444 -360 c26 -90 44
-166 41 -169 -5 -5 -196 -4 -201 1 -1 1 21 81 49 179 29 97 55 171 58 165 4
-7 28 -86 53 -176z"/>
<path d="M6129 2555 c0 -19 0 -62 0 -95 0 -33 0 -67 0 -76 1 -12 12 -15 54
-14 28 1 66 1 82 1 l30 -1 -1 -402 c-1 -222 -2 -406 -3 -410 0 -5 -37 -8 -81
-8 -46 0 -80 -4 -81 -10 0 -5 -1 -53 -2 -104 -2 -77 1 -96 13 -98 8 -2 132 -4
275 -3 l260 0 1 108 2 107 -79 0 -79 0 0 347 c0 294 2 344 13 328 8 -11 56
-92 107 -180 51 -88 116 -200 145 -250 151 -257 230 -394 248 -427 12 -22 29
-38 39 -39 10 0 54 -1 98 -1 44 0 100 1 123 1 l44 1 0 515 c0 284 3 518 6 521
2 3 41 5 86 5 73 0 81 2 82 20 0 10 1 55 1 99 0 44 -1 85 -1 90 -1 7 -98 10
-281 9 l-280 -1 0 -110 0 -109 53 1 c28 1 66 1 82 1 l30 -1 -2 -123 c-1 -67
-2 -192 -3 -277 l0 -155 -116 195 c-64 107 -125 211 -135 230 -11 19 -29 51
-42 71 -12 20 -53 91 -91 157 l-70 120 -263 1 -263 1 -1 -35z"/>
</g>
</svg>
